PathFileType	4	(X/Y/Z)	output.trc
DataRate	CameraRate	NumFrames	NumMarkers	Units	OrigDataRate	OrigDataStartFrame	OrigNumFrames
200	200	4	68	mm	200	1	295
Frame#	Time			LASI			RASI			RSACR			LSACR			USACR			LBAR			RBAR			RHEE			RMT1			RMT5			RMT2			LHEE			LMT1			LMT5			LMT2			LMMAL			LMFC			LLFC			LLMAL			LTIB4			LTIB2			LTIB3			LTIB1			RMMAL			RMFC			RLFC			RLMAL			RTIB1			RTIB2			RTIB3			RTHI1			RTHI4			RTHI3			RTHI2			LTHI1			LTHI4			LTHI3			LTHI2			FHD			LBHD			RBHD			C7			T10			CLAV			LSHO			RSHO			LRAD			LUL			LRFIN			RRAD			RUL			RUFIN			RLEP			RMEP			LLEP			LMEP			LDUPA			LMUPA			LUUPA			RDUPA			RUUPA			RMUPA			LHJC			RHJC			LKJC			RKJC			LAJC			RAJC
		X1	Y1	Z1	X2	Y2	Z2	X3	Y3	Z3	X4	Y4	Z4	X5	Y5	Z5	X6	Y6	Z6	X7	Y7	Z7	X8	Y8	Z8	X9	Y9	Z9	X10	Y10	Z10	X11	Y11	Z11	X12	Y12	Z12	X13	Y13	Z13	X14	Y14	Z14	X15	Y15	Z15	X16	Y16	Z16	X17	Y17	Z17	X18	Y18	Z18	X19	Y19	Z19	X20	Y20	Z20	X21	Y21	Z21	X22	Y22	Z22	X23	Y23	Z23	X24	Y24	Z24	X25	Y25	Z25	X26	Y26	Z26	X27	Y27	Z27	X28	Y28	Z28	X29	Y29	Z29	X30	Y30	Z30	X31	Y31	Z31	X32	Y32	Z32	X33	Y33	Z33	X34	Y34	Z34	X35	Y35	Z35	X36	Y36	Z36	X37	Y37	Z37	X38	Y38	Z38	X39	Y39	Z39	X40	Y40	Z40	X41	Y41	Z41	X42	Y42	Z42	X43	Y43	Z43	X44	Y44	Z44	X45	Y45	Z45	X46	Y46	Z46	X47	Y47	Z47	X48	Y48	Z48	X49	Y49	Z49	X50	Y50	Z50	X51	Y51	Z51	X52	Y52	Z52	X53	Y53	Z53	X54	Y54	Z54	X55	Y55	Z55	X56	Y56	Z56	X57	Y57	Z57	X58	Y58	Z58	X59	Y59	Z59	X60	Y60	Z60	X61	Y61	Z61	X62	Y62	Z62	X63	Y63	Z63	X64	Y64	Z64	X65	Y65	Z65	X66	Y66	Z66	X67	Y67	Z67	X68	Y68	Z68
0	0.000000	134.793823	918.209229	-762.621582	130.561432	918.769836	-984.836243	310.442230	950.289734	-912.519165	309.642883	953.536865	-852.553955	298.794342	966.663452	-882.505920	1270.782715	26.251877	346.529297	1226.433716	26.210268	-1876.822510	323.071594	39.828358	-1019.678467	128.141724	43.515347	-1043.346313	165.085144	34.827560	-1113.697754	140.188629	42.714298	-1079.997803	326.302063	45.829723	-745.139282	134.398590	46.339024	-736.448242	169.922989	33.474483	-662.755493	143.171173	45.933964	-698.045898	276.687744	72.956436	-778.668640	233.377777	456.918518	-829.157776	219.799606	454.047363	-721.541687	278.814667	69.080925	-700.919922	290.465759	209.581024	-691.553101	314.243408	270.858826	-691.516235	263.667450	268.151001	-684.529297	301.951538	314.281219	-687.184448	275.138794	68.373917	-994.038757	235.843887	446.602081	-935.529846	221.270340	461.404938	-1041.427612	284.787872	72.230125	-1068.740479	257.515778	319.303406	-1082.793945	307.991852	313.957245	-1077.294067	276.952209	256.137299	-1081.430176	242.868942	783.976013	-1060.172607	243.784912	635.321899	-1066.122314	192.373230	637.136108	-1066.812866	220.281158	697.139954	-1070.312378	239.451859	778.984192	-698.955750	237.219589	646.836304	-694.858032	186.549332	637.586792	-693.653625	201.089050	701.320557	-689.505066	132.600662	1593.374512	-775.141418	243.283173	1575.834839	-786.354492	254.578171	1571.322266	-909.861450	264.031464	1391.405884	-857.765686	286.756805	1007.668823	-877.525940	141.307022	1329.083496	-872.792725	245.180420	1380.942993	-724.751770	237.610977	1397.068970	-986.898987	164.419952	1357.183105	-222.645279	205.058960	1352.801392	-222.020508	150.897400	1336.529541	-130.716171	242.824387	1388.356323	-1500.843018	289.673920	1382.057495	-1499.821899	237.296143	1390.432495	-1591.009155	294.569458	1329.428589	-1271.274048	256.165863	1295.909424	-1271.852661	220.655396	1299.804077	-453.877045	179.758636	1277.451416	-466.825287	237.077682	1353.650391	-505.763214	201.294205	1371.350708	-536.378601	238.505463	1362.317749	-584.866211	267.530518	1382.066162	-1205.881714	258.109131	1383.864258	-1144.196899	217.269653	1385.239014	-1212.516235	227.962860	883.576782	-771.377075	227.957535	884.345215	-985.842651	226.588684	455.482941	-775.349731	228.557114	454.003510	-988.478760	277.751221	71.018677	-739.794312	279.963318	70.302017	-1031.389648
1	0.005000	134.785934	918.198669	-762.611816	130.560760	918.767395	-984.838074	310.433441	950.292358	-912.503845	309.629669	953.553162	-852.556213	298.782410	966.667175	-882.492737	1270.780884	26.253183	346.538910	1226.437988	26.201834	-1876.809814	323.078766	39.830105	-1019.669617	128.147812	43.503536	-1043.351929	165.077423	34.834049	-1113.702881	140.189621	42.717922	-1080.004883	326.303406	45.830448	-745.144592	134.399536	46.336239	-736.450378	169.924088	33.466244	-662.755249	143.174026	45.933464	-698.051880	276.688751	72.966759	-778.669556	233.373993	456.913147	-829.162842	219.807327	454.050812	-721.538086	278.798126	69.087128	-700.922974	290.480133	209.567215	-691.556274	314.214783	270.922943	-691.507446	263.667328	268.150238	-684.525696	301.946930	314.305023	-687.163452	275.148590	68.374771	-994.036560	235.852524	446.599335	-935.520081	221.296371	461.398468	-1041.415894	284.790833	72.229233	-1068.741455	257.521454	319.302979	-1082.796387	307.999420	313.964386	-1077.293579	276.964294	256.143097	-1081.425293	242.862732	783.985413	-1060.176147	243.809250	635.341003	-1066.140869	192.376907	637.163452	-1066.827637	220.293564	697.170044	-1070.319824	239.440369	778.988586	-698.947144	237.166733	646.636047	-695.387817	186.537491	637.587646	-693.650757	201.085220	701.317017	-689.500671	132.563614	1593.380493	-775.143066	243.227875	1575.816284	-786.361145	254.547791	1571.308350	-909.851563	263.996185	1391.408691	-857.763428	286.746033	1007.674011	-877.528320	141.265442	1329.075928	-872.788391	245.154541	1380.948975	-724.744080	237.584854	1397.071411	-986.889404	164.407318	1357.159790	-222.639984	205.056213	1352.782471	-222.009476	150.911697	1336.483032	-130.697739	242.790100	1388.362793	-1500.839355	289.641266	1382.059692	-1499.812256	237.278107	1390.447876	-1591.001831	294.511780	1329.437866	-1271.267578	256.120087	1295.916260	-1271.850220	220.627121	1299.791626	-453.890198	179.735199	1277.437012	-466.824768	237.054901	1353.641113	-505.760223	201.264786	1371.336182	-536.375061	238.564514	1362.119873	-584.896362	267.487213	1382.067749	-1205.880859	258.074066	1383.867187	-1144.188232	217.210541	1385.235352	-1212.518066	227.951996	883.580139	-771.371704	227.952316	884.348389	-985.839355	226.590668	455.481995	-775.350464	228.574448	453.998901	-988.468018	277.743439	71.026947	-739.796265	279.969727	70.302002	-1031.389038
2	0.010000	134.775955	918.194763	-762.605469	130.553940	918.756042	-984.828552	310.427612	950.300659	-912.504150	309.630554	953.555176	-852.543152	298.759033	966.663208	-882.494385	1270.782837	26.258297	346.547272	1226.439331	26.204702	-1876.813232	323.073944	39.831768	-1019.678528	128.148697	43.492115	-1043.339233	165.080750	34.828915	-1113.702759	140.195419	42.714989	-1079.999756	326.303284	45.833206	-745.144104	134.400436	46.331341	-736.436829	169.927109	33.468872	-662.748413	143.173569	45.933765	-698.042603	276.682312	72.960922	-778.675110	233.382065	456.925171	-829.159790	219.815277	454.055359	-721.535645	278.807648	69.091446	-700.918091	290.483765	209.567459	-691.559998	314.249237	270.867584	-691.507141	263.665894	268.151306	-684.527222	301.948975	314.294373	-687.161865	275.144012	68.380005	-994.037720	235.867371	446.594849	-935.517822	221.314392	461.401733	-1041.418457	284.795013	72.226303	-1068.736084	257.536896	319.297882	-1082.774658	308.014709	313.956421	-1077.270996	276.972565	256.150787	-1081.417358	242.866150	783.982788	-1060.165405	243.822296	635.340942	-1066.079712	192.393494	637.178101	-1066.833496	220.169128	697.258118	-1070.377563	239.448029	778.987793	-698.953552	237.203217	646.820862	-694.859436	186.542419	637.588074	-693.652466	201.094269	701.322571	-689.500732	132.535248	1593.381226	-775.135986	243.202194	1575.806274	-786.355713	254.523682	1571.292480	-909.847412	263.968842	1391.416992	-857.754395	286.742645	1007.674377	-877.522400	141.227631	1329.067505	-872.786072	245.124863	1380.933838	-724.736328	237.539612	1397.070435	-986.892883	164.411774	1357.132202	-222.629013	205.058456	1352.774414	-222.012466	150.921585	1336.448486	-130.691269	242.753143	1388.367798	-1500.834473	289.606506	1382.060791	-1499.811401	237.251266	1390.465210	-1591.004272	294.480560	1329.451904	-1271.269531	256.075348	1295.928955	-1271.840820	220.620743	1299.778809	-453.877747	179.719009	1277.428467	-466.819397	237.035416	1353.627563	-505.749725	201.263550	1371.338135	-536.361145	238.463120	1362.317261	-584.872314	267.429138	1382.076294	-1205.881104	258.029907	1383.873535	-1144.182617	217.186417	1385.238770	-1212.494263	227.951508	883.579224	-771.367371	227.949234	884.346497	-985.832703	226.598663	455.490265	-775.347717	228.590881	453.998291	-988.468140	277.744995	71.026184	-739.796631	279.969513	70.303154	-1031.386963
3	0.015000	134.774307	918.187805	-762.596436	130.545578	918.749756	-984.826416	310.416779	950.308105	-912.492432	309.630615	953.559692	-852.541260	298.760956	966.679016	-882.481628	1270.789795	26.273207	346.542664	1226.440552	26.196630	-1876.801270	323.071777	39.819939	-1019.680786	128.159958	43.488579	-1043.336304	165.078873	34.821011	-1113.699097	140.196671	42.716095	-1080.007080	326.299530	45.836555	-745.145020	134.397385	46.331703	-736.449097	169.922531	33.469868	-662.750610	143.172882	45.930779	-698.040405	276.688751	72.957588	-778.668762	233.388824	456.924438	-829.152954	219.814453	454.054657	-721.527405	278.816376	69.096687	-700.928467	290.490906	209.570908	-691.548401	314.242676	270.866028	-691.499695	263.675171	268.153168	-684.526611	301.955261	314.263214	-687.175537	275.144135	68.372002	-994.036438	235.868256	446.600464	-935.502930	221.312714	461.405212	-1041.424194	284.791290	72.218689	-1068.734497	257.534790	319.311981	-1082.785278	308.026703	313.967468	-1077.265503	276.985626	256.134735	-1081.405273	242.872375	783.980591	-1060.159302	243.831055	635.332886	-1066.094360	192.412262	637.158447	-1066.807617	220.172699	697.275391	-1070.372070	239.440659	778.993958	-698.948120	237.173935	646.647095	-695.394470	186.534149	637.586060	-693.646912	201.077881	701.323608	-689.503967	132.527206	1593.362915	-775.122559	243.173965	1575.788452	-786.356567	254.491379	1571.275269	-909.847778	263.945801	1391.415771	-857.757080	286.730072	1007.681335	-877.526123	141.199615	1329.064697	-872.774414	245.100815	1380.937988	-724.736450	237.518356	1397.072754	-986.882751	164.412643	1357.123169	-222.620850	205.059738	1352.760010	-222.011108	150.928680	1336.425415	-130.684875	242.717865	1388.376709	-1500.834717	289.562378	1382.071045	-1499.808228	237.220367	1390.473389	-1590.991211	294.429871	1329.459961	-1271.257935	256.037384	1295.940308	-1271.836548	220.600159	1299.763306	-453.877777	179.705887	1277.414795	-466.822784	237.017838	1353.615723	-505.744141	201.243866	1371.326294	-536.350647	238.523010	1362.106812	-584.884033	267.373840	1382.077026	-1205.867554	257.988281	1383.879028	-1144.179565	217.114532	1385.255371	-1212.505493	227.948532	883.580505	-771.361938	227.944916	884.346130	-985.826050	226.601639	455.489563	-775.340210	228.590485	454.002838	-988.463562	277.752563	71.027138	-739.798584	279.967712	70.295349	-1031.385498
